# xmcd CD database file
#
# Track frame offsets:
#	150
#	21870
#	51497
#	66649
#	88653
#	105670
#	128972
#	151017
#	169464
#	191347
#	213949
#	233399
#	255687
#	272461
#	288728
#
# Disc length: 4071 seconds
#
# Revision: 0
# Processed by: cddbd v1.5.1PL2 Copyright (c) Steve Scherf et al.
# Submitted via: CDex 1.51
#
DISCID=d70fe50f
DTITLE=Thorsten Plath - Take two - Thorsten Plath Trio - David Jehn
DYEAR=1900
DGENRE=Jazz
TTITLE0=The greatest love - Take two
TTITLE1=Both sides now - Take two
TTITLE2=Night in Tunesia - Take two
TTITLE3=Try - Take two
TTITLE4=Lazy - Thorsten Plath Trio
TTITLE5=St. Ferran - Thorsten Plath Trio
TTITLE6=Messakti - Thorsten Plath Trio
TTITLE7=Tanga - Thorsten Plath Trio
TTITLE8=Sandfish - Thorsten Plath Trio
TTITLE9=One, two, one - Thorsten Plath Trio
TTITLE10=El puerto - David Jehn - TP Duo
TTITLE11=Danza de la ola - David Jehn - TP Duo
TTITLE12=Great dream of a small turtle - David Jehn - TP Duo
TTITLE13=Canzion para mi mujer - David Jehn - TP Duo
TTITLE14=Bluesette - David Jehn - TP Duo
EXTD=
EXTT0=
EXTT1=
EXTT2=
EXTT3=
EXTT4=
EXTT5=
EXTT6=
EXTT7=
EXTT8=
EXTT9=
EXTT10=
EXTT11=
EXTT12=
EXTT13=
EXTT14=
PLAYORDER=
